<svg xmlns="http://www.w3.org/2000/svg" xmlns:xlink="http://www.w3.org/1999/xlink" width="500" zoomAndPan="magnify" viewBox="0 0 375 374.999991" height="500" preserveAspectRatio="xMidYMid meet" version="1.0"><defs><g/></defs><rect x="-37.5" width="450" fill="#ffffff" y="-37.499999" height="449.999989" fill-opacity="1"/><rect x="-37.5" width="450" fill="#ffffff" y="-37.499999" height="449.999989" fill-opacity="1"/><g fill="#000000" fill-opacity="1"><g transform="translate(111.750264, 235.499985)"><g><path d="M 189.28125 -149.90625 C 190.019531 -149.90625 190.707031 -149.90625 191.34375 -149.90625 L 191.34375 -148.3125 C 186.375 -148.101562 181.664062 -146.9375 177.21875 -144.8125 C 172.769531 -142.695312 169.007812 -140.179688 165.9375 -137.265625 C 162.863281 -134.359375 160.003906 -130.84375 157.359375 -126.71875 C 153.128906 -120.15625 149.53125 -112.640625 146.5625 -104.171875 L 116.078125 -15.71875 C 113.960938 -9.050781 112.796875 -3.175781 112.578125 1.90625 L 111.15625 1.90625 L 78.765625 -88.765625 L 53.1875 -8.734375 C 49.382812 3.222656 43.25 12.539062 34.78125 19.21875 C 28.632812 24.1875 21.75 26.671875 14.125 26.671875 C 11.476562 26.671875 8.675781 26.351562 5.71875 25.71875 L 6.03125 24.140625 C 7.613281 24.453125 9.4375 24.609375 11.5 24.609375 C 13.570312 24.609375 16.328125 23.972656 19.765625 22.703125 C 23.203125 21.429688 26.617188 19.15625 30.015625 15.875 C 36.890625 9.207031 42.179688 0.847656 45.890625 -9.203125 L 13.8125 -99.890625 C 12.539062 -103.054688 10.582031 -105.457031 7.9375 -107.09375 C 5.289062 -108.738281 2.59375 -109.5625 -0.15625 -109.5625 L -1.4375 -109.5625 L -1.4375 -111.15625 L 33.828125 -111.15625 L 33.828125 -109.5625 L 32.390625 -109.5625 C 30.171875 -109.5625 28.503906 -108.847656 27.390625 -107.421875 C 26.273438 -105.992188 25.71875 -104.644531 25.71875 -103.375 C 25.71875 -102.101562 25.878906 -100.941406 26.203125 -99.890625 L 50.34375 -22.546875 L 79.875 -113.703125 L 81.296875 -113.546875 L 112.75 -25.5625 L 136.25 -104.171875 C 139 -113.378906 143.234375 -121.691406 148.953125 -129.109375 C 159.535156 -142.972656 172.976562 -149.90625 189.28125 -149.90625 Z M 189.28125 -149.90625 "/></g></g></g><path fill="#ffffff" d="M 123.308594 173.082031 L 251.683594 173.082031 C 253.070312 173.082031 254.40625 173.636719 255.386719 174.617188 C 256.371094 175.601562 256.921875 176.933594 256.921875 178.320312 L 256.921875 188.800781 C 256.921875 190.191406 256.371094 191.523438 255.386719 192.503906 C 254.40625 193.488281 253.070312 194.039062 251.683594 194.039062 L 123.308594 194.039062 C 120.417969 194.039062 118.070312 191.695312 118.070312 188.800781 L 118.070312 178.320312 C 118.070312 175.429688 120.417969 173.082031 123.308594 173.082031 Z M 123.308594 173.082031 " fill-opacity="1" fill-rule="nonzero"/><g fill="#000000" fill-opacity="1"><g transform="translate(128.230209, 187.68636)"><g><path d="M 11.28125 -9.234375 L 13.28125 -9.234375 L 10.625 0 L 8.21875 0 L 6.6875 -6.5625 L 4.875 0 L 2.453125 0 L 0.140625 -9.234375 L 2.296875 -9.234375 L 3.78125 -2.828125 L 5.5625 -9.234375 L 8.078125 -9.234375 L 9.53125 -2.84375 Z M 11.28125 -9.234375 "/></g></g></g><g fill="#000000" fill-opacity="1"><g transform="translate(151.32562, 187.68636)"><g><path d="M 0.875 0 L 0.875 -9.234375 L 3 -9.234375 L 3 -5.578125 L 6.859375 -5.578125 L 6.859375 -9.234375 L 9 -9.234375 L 9 0 L 6.859375 0 L 6.859375 -3.71875 L 3 -3.71875 L 3 0 Z M 0.875 0 "/></g></g></g><g fill="#000000" fill-opacity="1"><g transform="translate(171.09103, 187.68636)"><g><path d="M 0.875 0 L 0.875 -9.234375 L 3 -9.234375 L 3 0 Z M 0.875 0 "/></g></g></g><g fill="#000000" fill-opacity="1"><g transform="translate(184.859828, 187.68636)"><g><path d="M 3.859375 0.109375 C 2.722656 0.109375 1.84375 -0.128906 1.21875 -0.609375 C 0.59375 -1.097656 0.238281 -1.816406 0.15625 -2.765625 L 2.140625 -3.046875 C 2.191406 -2.597656 2.367188 -2.253906 2.671875 -2.015625 C 2.984375 -1.773438 3.40625 -1.65625 3.9375 -1.65625 C 4.40625 -1.65625 4.757812 -1.734375 5 -1.890625 C 5.25 -2.054688 5.375 -2.285156 5.375 -2.578125 C 5.375 -2.847656 5.242188 -3.0625 4.984375 -3.21875 C 4.722656 -3.375 4.296875 -3.519531 3.703125 -3.65625 C 3.054688 -3.8125 2.507812 -4 2.0625 -4.21875 C 1.625 -4.445312 1.289062 -4.738281 1.0625 -5.09375 C 0.84375 -5.445312 0.734375 -5.894531 0.734375 -6.4375 C 0.734375 -7.007812 0.878906 -7.515625 1.171875 -7.953125 C 1.460938 -8.398438 1.875 -8.75 2.40625 -9 C 2.9375 -9.25 3.550781 -9.375 4.25 -9.375 C 5.144531 -9.375 5.878906 -9.140625 6.453125 -8.671875 C 7.023438 -8.210938 7.351562 -7.585938 7.4375 -6.796875 L 5.578125 -6.484375 C 5.515625 -6.835938 5.351562 -7.109375 5.09375 -7.296875 C 4.84375 -7.492188 4.53125 -7.59375 4.15625 -7.59375 C 3.769531 -7.59375 3.457031 -7.503906 3.21875 -7.328125 C 2.988281 -7.148438 2.875 -6.910156 2.875 -6.609375 C 2.875 -6.335938 2.984375 -6.113281 3.203125 -5.9375 C 3.429688 -5.769531 3.847656 -5.613281 4.453125 -5.46875 C 5.085938 -5.3125 5.632812 -5.132812 6.09375 -4.9375 C 6.550781 -4.738281 6.898438 -4.46875 7.140625 -4.125 C 7.390625 -3.789062 7.515625 -3.335938 7.515625 -2.765625 C 7.515625 -2.191406 7.363281 -1.6875 7.0625 -1.25 C 6.757812 -0.820312 6.332031 -0.488281 5.78125 -0.25 C 5.226562 -0.0078125 4.585938 0.109375 3.859375 0.109375 Z M 3.859375 0.109375 "/></g></g></g><g fill="#000000" fill-opacity="1"><g transform="translate(202.556993, 187.68636)"><g><path d="M 2.9375 0 L 0.875 0 L 0.875 -9.234375 L 4.265625 -9.234375 C 5.566406 -9.234375 6.539062 -8.984375 7.1875 -8.484375 C 7.84375 -7.992188 8.171875 -7.265625 8.171875 -6.296875 C 8.171875 -5.347656 7.800781 -4.597656 7.0625 -4.046875 C 6.332031 -3.503906 5.304688 -3.234375 3.984375 -3.234375 L 2.9375 -3.234375 Z M 4.25 -7.515625 L 2.9375 -7.515625 L 2.9375 -4.984375 L 4.09375 -4.984375 C 4.757812 -4.984375 5.25 -5.082031 5.5625 -5.28125 C 5.882812 -5.476562 6.046875 -5.8125 6.046875 -6.28125 C 6.046875 -6.738281 5.898438 -7.054688 5.609375 -7.234375 C 5.328125 -7.421875 4.875 -7.515625 4.25 -7.515625 Z M 4.25 -7.515625 "/></g></g></g><g fill="#000000" fill-opacity="1"><g transform="translate(220.787476, 187.68636)"><g><path d="M 7.203125 -7.40625 L 2.953125 -7.40625 L 2.953125 -5.578125 L 6.921875 -5.578125 L 6.921875 -3.734375 L 2.953125 -3.734375 L 2.953125 -1.828125 L 7.328125 -1.828125 L 7.203125 0 L 0.875 0 L 0.875 -9.234375 L 7.203125 -9.234375 Z M 7.203125 -7.40625 "/></g></g></g><g fill="#000000" fill-opacity="1"><g transform="translate(238.224483, 187.68636)"><g><path d="M 8.578125 -1.984375 L 9.078125 -0.34375 C 8.878906 -0.195312 8.628906 -0.0820312 8.328125 0 C 8.035156 0.0820312 7.734375 0.125 7.421875 0.125 C 6.859375 0.125 6.363281 0.0078125 5.9375 -0.21875 C 5.507812 -0.445312 5.15625 -0.78125 4.875 -1.21875 L 3.78125 -3 C 3.644531 -3.207031 3.515625 -3.347656 3.390625 -3.421875 C 3.265625 -3.503906 3.117188 -3.550781 2.953125 -3.5625 L 2.953125 0 L 0.875 0 L 0.875 -9.234375 L 3.90625 -9.234375 C 5.175781 -9.234375 6.128906 -8.976562 6.765625 -8.46875 C 7.410156 -7.957031 7.734375 -7.253906 7.734375 -6.359375 C 7.734375 -5.640625 7.515625 -5.054688 7.078125 -4.609375 C 6.640625 -4.160156 6.078125 -3.863281 5.390625 -3.71875 C 5.671875 -3.582031 5.921875 -3.351562 6.140625 -3.03125 L 6.578125 -2.359375 C 6.859375 -1.941406 7.222656 -1.734375 7.671875 -1.734375 C 7.835938 -1.734375 7.992188 -1.75 8.140625 -1.78125 C 8.296875 -1.820312 8.441406 -1.890625 8.578125 -1.984375 Z M 3.78125 -7.515625 L 2.953125 -7.515625 L 2.953125 -5.21875 L 3.78125 -5.21875 C 4.425781 -5.21875 4.890625 -5.3125 5.171875 -5.5 C 5.460938 -5.6875 5.609375 -5.976562 5.609375 -6.375 C 5.609375 -6.769531 5.445312 -7.054688 5.125 -7.234375 C 4.800781 -7.421875 4.351562 -7.515625 3.78125 -7.515625 Z M 3.78125 -7.515625 "/></g></g></g></svg>